# Blender 4.4.0
# www.blender.org
mtllib amethyst.mtl
o Cube
v 0.668328 0.889489 0.611229
v -0.448328 -0.910473 -0.510958
v -0.448328 -0.910473 0.611229
v -0.448489 0.809320 0.539318
v -0.448489 0.809320 -0.439218
v -0.829354 0.023696 0.539318
v 0.668489 0.809320 0.539318
v 1.048917 -0.066157 -0.439218
v 0.668927 -0.830925 -0.439218
v 0.196227 0.027411 -0.954224
v 0.999284 -0.070023 -0.515323
v -0.448927 -0.830925 0.539318
v -0.425001 0.759697 -0.515233
v 0.563812 0.811429 -0.514998
v 0.022542 -0.070023 -0.953247
v 0.196423 0.027491 1.034739
v 0.999435 0.027491 0.614524
v 0.644900 -0.782171 0.614614
v -0.376610 0.854354 -0.439218
v 0.596590 0.854354 0.539318
v 0.596590 0.854354 -0.439218
v 0.668328 -0.910473 -0.510958
v 1.110000 -0.021564 -0.510958
v -0.890000 -0.021564 0.611229
v -0.448328 0.889489 0.611229
v 1.110000 -0.021564 0.611229
v 0.668328 -0.910473 0.611229
v -0.890000 -0.021564 -0.510958
v 0.668328 0.889489 -0.510958
v -0.448328 0.889489 -0.510958
v 0.110000 -0.021564 -1.057116
v 0.110000 -0.021564 1.134527
v -0.829354 0.023696 -0.439218
v -0.779435 0.027491 0.614524
v 0.023577 0.027491 1.034739
v 0.596610 -0.875744 -0.439218
v -0.376610 -0.875744 -0.439218
v -0.376610 -0.875744 0.539318
v 1.049354 0.023696 -0.439218
v 1.049354 0.023696 0.539318
v 1.000008 0.027411 -0.515233
v -0.828916 -0.066157 0.539318
v -0.448927 -0.830925 -0.439218
v 0.022351 -0.070107 1.033805
v -0.780008 0.027411 -0.515233
v -0.343812 0.811429 -0.514998
v 0.110000 0.070921 -0.958918
v -0.425140 -0.782773 -0.515323
v 0.644768 0.759078 0.614524
v 0.563387 0.810957 0.614292
v 0.562660 -0.832615 0.614754
v 0.197649 -0.070107 1.033805
v -0.376610 0.854354 0.539318
v 0.645001 0.759697 -0.515233
v 0.023773 0.027411 -0.954224
v -0.424768 0.759078 0.614524
v -0.396261 0.817810 0.559161
v -0.396261 0.817810 -0.458890
v -0.424900 -0.782171 0.614614
v 0.668927 -0.830925 0.539318
v -0.778703 -0.070107 0.614614
v 0.596610 -0.875744 0.539318
v 0.668489 0.809320 -0.439218
v 1.048917 -0.066157 0.539318
v -0.779284 -0.070023 -0.515323
v 0.998703 -0.070107 0.614614
v 0.197458 -0.070023 -0.953247
v 0.645140 -0.782773 -0.515323
v -0.828916 -0.066157 -0.439218
v 0.110000 -0.111709 -0.958699
v -0.343111 -0.833103 -0.515465
v 0.563111 -0.833102 -0.515465
v 0.110000 -0.111940 1.039014
v -0.342660 -0.832615 0.614754
v -0.343387 0.810957 0.614292
v 0.110000 0.071142 1.039233
vn -0.4358 0.9000 -0.0000
vn -0.0000 -0.0517 0.9987
vn -0.0000 -0.8985 0.4390
vn 0.4398 -0.8981 -0.0000
vn -0.0000 -0.8981 -0.4398
vn 1.0000 -0.0020 -0.0000
vn 0.8095 -0.3924 -0.4367
vn 0.5981 -0.8014 -0.0000
vn 0.8099 -0.3926 0.4359
vn 0.0379 -0.0184 -0.9991
vn 0.3302 -0.7019 -0.6311
vn 0.7796 0.1253 -0.6136
vn 0.4358 0.9000 -0.0000
vn -0.0000 0.9005 0.4349
vn -0.0000 0.9001 -0.4357
vn -1.0000 -0.0020 -0.0000
vn -0.8099 -0.3926 0.4359
vn -0.5981 -0.8014 -0.0000
vn -0.8095 -0.3924 -0.4367
vn -0.5896 0.8077 -0.0000
vn -0.8058 0.4004 0.4362
vn -1.0000 0.0075 -0.0000
vn -0.8055 0.4002 -0.4371
vn -0.0495 -0.0240 0.9985
vn -0.3390 -0.7071 0.6206
vn -0.7885 0.1219 0.6028
vn -0.3362 0.7127 0.6156
vn -0.0503 0.0250 0.9984
vn -0.7866 -0.1221 0.6053
vn 0.5896 0.8077 -0.0000
vn 0.8055 0.4002 -0.4371
vn 1.0000 0.0075 -0.0000
vn 0.8058 0.4004 0.4362
vn 0.3276 0.7075 -0.6261
vn 0.0388 0.0193 -0.9991
vn 0.7776 -0.1257 -0.6161
vn 0.3390 -0.7071 0.6206
vn 0.0495 -0.0240 0.9985
vn 0.7885 0.1219 0.6028
vn 0.4594 -0.6466 0.6090
vn -0.4594 -0.6466 0.6090
vn -0.0000 0.0582 0.9983
vn -0.4567 0.6560 0.6009
vn 0.4567 0.6560 0.6009
vn 0.0503 0.0250 0.9984
vn 0.3362 0.7127 0.6156
vn 0.7866 -0.1221 0.6053
vn -0.3302 -0.7019 -0.6311
vn -0.0379 -0.0184 -0.9991
vn -0.7796 0.1253 -0.6136
vn -0.0000 -0.0390 -0.9992
vn -0.4586 -0.6370 -0.6197
vn 0.4586 -0.6370 -0.6197
vn -0.0000 0.0452 -0.9990
vn 0.4559 0.6465 -0.6117
vn -0.4559 0.6465 -0.6117
vn -0.0388 0.0193 -0.9991
vn -0.3276 0.7075 -0.6261
vn -0.7776 -0.1257 -0.6161
vn -0.4399 -0.8980 -0.0000
vt 0.136657 0.738400
vt 0.125000 0.500000
vt 0.125000 0.750000
vt 0.625000 0.250000
vt 0.618741 0.480703
vt 0.625000 0.500000
vt 0.875000 0.750000
vt 0.636657 0.738400
vt 0.625000 0.750000
vt 0.636657 0.511600
vt 0.875000 0.500000
vt 0.618433 0.011600
vt 0.625000 0.000000
vt 0.503871 0.238400
vt 0.497304 0.250000
vt 0.503872 0.011600
vt 0.497304 0.000000
vt 0.611107 0.993747
vt 0.497304 1.000000
vt 0.625000 1.000000
vt 0.504425 0.889318
vt 0.497304 0.875000
vt 0.375000 0.500000
vt 0.363343 0.738400
vt 0.375000 0.750000
vt 0.136657 0.511600
vt 0.618433 0.738400
vt 0.497304 0.750000
vt 0.503871 0.738400
vt 0.497304 0.500000
vt 0.503871 0.511600
vt 0.490889 0.738400
vt 0.381416 0.738400
vt 0.381416 0.511600
vt 0.611197 0.493817
vt 0.504413 0.389287
vt 0.497304 0.375000
vt 0.490335 0.389520
vt 0.388308 0.493795
vt 0.490889 0.011600
vt 0.490889 0.238400
vt 0.375000 0.250000
vt 0.381416 0.238400
vt 0.375000 0.000000
vt 0.381416 0.011600
vt 0.490323 0.889550
vt 0.388395 0.993725
vt 0.375000 1.000000
vt 0.504413 0.360713
vt 0.611197 0.256183
vt 0.510758 0.375000
vt 0.381104 0.480540
vt 0.484368 0.375000
vt 0.388308 0.256205
vt 0.490335 0.360480
vt 0.504425 0.860682
vt 0.611107 0.756253
vt 0.618672 0.769396
vt 0.510790 0.875000
vt 0.381174 0.980435
vt 0.484335 0.875000
vt 0.388395 0.756275
vt 0.490323 0.860450
vt 0.863343 0.738400
vt 0.618741 0.269297
vt 0.863343 0.511600
vt 0.618433 0.238400
vt 0.504425 0.993747
vt 0.363343 0.511600
vt 0.618433 0.511600
vt 0.490889 0.511600
vt 0.504413 0.493817
vt 0.490335 0.493795
vt 0.490323 0.993725
vt 0.504413 0.256183
vt 0.381104 0.269460
vt 0.490335 0.256205
vt 0.504425 0.756253
vt 0.618672 0.980604
vt 0.381174 0.769565
vt 0.490323 0.756275
s 0
usemtl Material
f 38/1/1 2/2/1 3/3/1
f 30/4/2 14/5/2 29/6/2
f 25/7/3 20/8/3 1/9/3
f 20/8/4 29/6/4 1/9/4
f 21/10/5 30/11/5 29/6/5
f 4/12/6 30/4/6 25/13/6
f 30/4/7 33/14/7 28/15/7
f 28/15/8 6/16/8 24/17/8
f 6/16/9 25/13/9 24/17/9
f 56/18/10 24/19/10 25/20/10
f 24/19/11 35/21/11 32/22/11
f 35/21/12 25/20/12 32/22/12
f 22/23/13 62/24/13 27/25/13
f 62/24/14 3/3/14 27/25/14
f 37/26/15 22/23/15 2/2/15
f 29/6/16 7/27/16 1/9/16
f 7/27/17 26/28/17 1/9/17
f 40/29/18 23/30/18 26/28/18
f 39/31/19 29/6/19 23/30/19
f 23/30/20 64/32/20 26/28/20
f 64/32/21 27/25/21 26/28/21
f 60/33/22 22/23/22 27/25/22
f 9/34/23 23/30/23 22/23/23
f 54/35/24 23/30/24 29/6/24
f 23/30/25 10/36/25 31/37/25
f 10/36/26 29/6/26 31/37/26
f 67/38/27 23/30/27 31/37/27
f 23/30/28 68/39/28 22/23/28
f 22/23/29 67/38/29 31/37/29
f 42/40/30 28/15/30 24/17/30
f 69/41/31 2/42/31 28/15/31
f 43/43/32 3/44/32 2/42/32
f 12/45/33 24/17/33 3/44/33
f 44/46/34 24/19/34 32/22/34
f 24/19/35 59/47/35 3/48/35
f 3/48/36 44/46/36 32/22/36
f 55/49/37 28/15/37 31/37/37
f 28/15/38 13/50/38 30/4/38
f 30/4/39 55/49/39 31/37/39
f 29/6/40 47/51/40 31/37/40
f 47/51/41 30/4/41 31/37/41
f 72/52/42 2/42/42 22/23/42
f 2/42/43 70/53/43 31/37/43
f 70/53/44 22/23/44 31/37/44
f 48/54/45 28/15/45 2/42/45
f 28/15/46 15/55/46 31/37/46
f 15/55/47 2/42/47 31/37/47
f 16/56/48 26/28/48 32/22/48
f 26/28/49 49/57/49 1/9/49
f 1/9/50 16/56/50 32/22/50
f 50/58/51 25/20/51 1/9/51
f 25/20/52 76/59/52 32/22/52
f 76/59/53 1/9/53 32/22/53
f 74/60/54 27/25/54 3/48/54
f 27/25/55 73/61/55 32/22/55
f 73/61/56 3/48/56 32/22/56
f 18/62/57 26/28/57 27/25/57
f 26/28/58 52/63/58 32/22/58
f 52/63/59 27/25/59 32/22/59
f 30/11/60 53/64/60 25/7/60
f 38/1/1 37/26/1 2/2/1
f 30/4/2 46/65/2 14/5/2
f 25/7/3 53/64/3 20/8/3
f 20/8/4 21/10/4 29/6/4
f 21/10/5 19/66/5 30/11/5
f 4/12/6 5/67/6 30/4/6
f 30/4/7 5/67/7 33/14/7
f 28/15/8 33/14/8 6/16/8
f 6/16/9 4/12/9 25/13/9
f 56/18/10 34/68/10 24/19/10
f 24/19/11 34/68/11 35/21/11
f 35/21/12 56/18/12 25/20/12
f 22/23/13 36/69/13 62/24/13
f 62/24/14 38/1/14 3/3/14
f 37/26/15 36/69/15 22/23/15
f 29/6/16 63/70/16 7/27/16
f 7/27/17 40/29/17 26/28/17
f 40/29/18 39/31/18 23/30/18
f 39/31/19 63/70/19 29/6/19
f 23/30/20 8/71/20 64/32/20
f 64/32/21 60/33/21 27/25/21
f 60/33/22 9/34/22 22/23/22
f 9/34/23 8/71/23 23/30/23
f 54/35/24 41/72/24 23/30/24
f 23/30/25 41/72/25 10/36/25
f 10/36/26 54/35/26 29/6/26
f 67/38/27 11/73/27 23/30/27
f 23/30/28 11/73/28 68/39/28
f 22/23/29 68/39/29 67/38/29
f 42/40/30 69/41/30 28/15/30
f 69/41/31 43/43/31 2/42/31
f 43/43/32 12/45/32 3/44/32
f 12/45/33 42/40/33 24/17/33
f 44/46/34 61/74/34 24/19/34
f 24/19/35 61/74/35 59/47/35
f 3/48/36 59/47/36 44/46/36
f 55/49/37 45/75/37 28/15/37
f 28/15/38 45/75/38 13/50/38
f 30/4/39 13/50/39 55/49/39
f 29/6/40 14/5/40 47/51/40
f 47/51/41 46/65/41 30/4/41
f 72/52/42 71/76/42 2/42/42
f 2/42/43 71/76/43 70/53/43
f 70/53/44 72/52/44 22/23/44
f 48/54/45 65/77/45 28/15/45
f 28/15/46 65/77/46 15/55/46
f 15/55/47 48/54/47 2/42/47
f 16/56/48 17/78/48 26/28/48
f 26/28/49 17/78/49 49/57/49
f 1/9/50 49/57/50 16/56/50
f 50/58/51 75/79/51 25/20/51
f 25/20/52 75/79/52 76/59/52
f 76/59/53 50/58/53 1/9/53
f 74/60/54 51/80/54 27/25/54
f 27/25/55 51/80/55 73/61/55
f 73/61/56 74/60/56 3/48/56
f 18/62/57 66/81/57 26/28/57
f 26/28/58 66/81/58 52/63/58
f 52/63/59 18/62/59 27/25/59
f 30/11/60 19/66/60 53/64/60
l 58 57
