# Blender 4.4.0
# www.blender.org
mtllib Untitled.mtl
o Cube
v 0.668328 0.889489 -0.510958
v 0.668328 0.889489 0.611229
v 0.616261 -0.910473 -0.458890
v -0.448328 0.889489 -0.510958
v -0.448328 -0.910473 -0.510958
v -0.448328 0.889489 0.611229
v -0.448328 -0.910473 0.611229
v -0.471042 0.842637 0.559161
v -0.471042 0.842637 -0.458890
v -0.867286 0.025288 -0.458890
v -0.867286 0.025288 0.559161
v -0.446362 0.790366 0.637405
v -0.815352 0.029236 0.637405
v 0.020087 0.029236 1.074588
v 0.616261 -0.910473 -0.458890
v 0.616261 -0.910473 0.559161
v -0.396261 -0.910473 0.559161
v -0.396261 -0.910473 -0.458890
v 0.691042 0.842637 -0.458890
v 0.691042 0.842637 0.559161
v 1.087286 0.025288 0.559161
v 1.087286 0.025288 -0.458890
v 1.086831 -0.068193 -0.458890
v 1.086831 -0.068193 0.559161
v 0.691497 -0.863844 0.559161
v 0.691497 -0.863844 -0.458890
v 0.666605 0.791010 -0.537974
v 1.035948 0.029152 -0.537974
v 0.199709 0.029152 -0.994692
v 0.200989 -0.072215 -0.993676
v 1.035195 -0.072215 -0.538068
v 0.666750 -0.813748 -0.538068
v -0.866831 -0.068193 0.559161
v -0.866831 -0.068193 -0.458890
v -0.471497 -0.863844 -0.458890
v -0.471497 -0.863844 0.559161
v 0.018812 -0.072303 1.073616
v -0.814590 -0.072303 0.637498
v -0.446500 -0.813121 0.637498
v 0.020291 0.029152 -0.994692
v -0.815948 0.029152 -0.537974
v -0.446605 0.791010 -0.537974
v -0.362138 0.844831 -0.537729
v 0.582138 0.844831 -0.537729
v 0.110000 0.074419 -0.999576
v 0.581409 -0.866110 -0.538215
v -0.361409 -0.866110 -0.538215
v 0.110000 -0.115585 -0.999348
v -0.446750 -0.813748 -0.538068
v -0.815195 -0.072215 -0.538068
v 0.019011 -0.072215 -0.993676
v 0.199913 0.029236 1.074588
v 1.035352 0.029236 0.637405
v 0.666362 0.790366 0.637405
v 0.581696 0.844339 0.637163
v -0.361696 0.844339 0.637163
v 0.110000 0.074649 1.079263
v -0.360939 -0.865603 0.637644
v 0.580939 -0.865603 0.637644
v 0.110000 -0.115825 1.079036
v 0.666500 -0.813121 0.637498
v 1.034590 -0.072303 0.637498
v 0.201188 -0.072303 1.073616
v -0.396261 0.889489 -0.458890
v -0.396261 0.889489 0.559161
v 0.616239 0.889489 0.559161
v 0.616239 0.889489 -0.458890
v -0.448328 -0.910473 -0.510958
v -0.448328 -0.910473 0.611229
v 0.668328 -0.910473 -0.510958
v 1.110000 -0.021564 -0.510958
v -0.890000 -0.021564 0.611229
v -0.448328 0.889489 0.611229
v 1.110000 -0.021564 0.611229
v 0.668328 -0.910473 0.611229
v -0.890000 -0.021564 -0.510958
v 0.668328 0.889489 0.611229
v 0.668328 0.889489 -0.510958
v -0.448328 0.889489 -0.510958
v 0.110000 -0.021564 -1.057116
v 0.110000 -0.021564 1.134527
v -0.471042 0.842637 0.559161
v -0.471042 0.842637 -0.458890
v -0.867286 0.025288 0.559161
v -0.867286 0.025288 -0.458890
v -0.815352 0.029236 0.637405
v -0.446362 0.790366 0.637405
v 0.020087 0.029236 1.074588
v 0.616261 -0.910473 0.559161
v 0.616261 -0.910473 -0.458890
v -0.396261 -0.910473 -0.458890
v -0.396261 -0.910473 0.559161
v 0.691042 0.842637 -0.458890
v 0.691042 0.842637 0.559161
v 1.087286 0.025288 -0.458890
v 1.087286 0.025288 0.559161
v 1.086831 -0.068193 -0.458890
v 1.086831 -0.068193 0.559161
v 0.691497 -0.863844 -0.458890
v 0.691497 -0.863844 0.559161
v 0.666605 0.791010 -0.537974
v 1.035948 0.029152 -0.537974
v 0.199709 0.029152 -0.994692
v 0.200989 -0.072215 -0.993676
v 1.035195 -0.072215 -0.538068
v 0.666750 -0.813748 -0.538068
v -0.866831 -0.068193 0.559161
v -0.866831 -0.068193 -0.458890
v -0.471497 -0.863844 0.559161
v -0.471497 -0.863844 -0.458890
v 0.018812 -0.072303 1.073616
v -0.814590 -0.072303 0.637498
v -0.446500 -0.813121 0.637498
v -0.815948 0.029152 -0.537974
v 0.020291 0.029152 -0.994692
v -0.446605 0.791010 -0.537974
v -0.362138 0.844831 -0.537729
v 0.110000 0.074419 -0.999576
v 0.582138 0.844831 -0.537729
v 0.581409 -0.866110 -0.538215
v -0.361409 -0.866110 -0.538215
v 0.110000 -0.115585 -0.999348
v -0.815195 -0.072215 -0.538068
v -0.446750 -0.813748 -0.538068
v 0.019011 -0.072215 -0.993676
v 1.035352 0.029236 0.637405
v 0.199913 0.029236 1.074588
v 0.666362 0.790366 0.637405
v 0.581696 0.844339 0.637163
v -0.361696 0.844339 0.637163
v 0.110000 0.074649 1.079263
v -0.360939 -0.865603 0.637644
v 0.580939 -0.865603 0.637644
v 0.110000 -0.115825 1.079036
v 1.034590 -0.072303 0.637498
v 0.666500 -0.813121 0.637498
v 0.201188 -0.072303 1.073616
v -0.396261 0.889489 0.559161
v -0.396261 0.889489 -0.458890
v 0.199709 0.029152 -0.994692
v -0.446605 0.791010 -0.537974
v 1.035948 0.029152 -0.537974
v 0.666605 0.791010 -0.537974
v -0.815948 0.029152 -0.537974
v 0.020291 0.029152 -0.994692
v 0.666362 0.790366 0.637405
v 1.035352 0.029236 0.637405
v 0.199913 0.029236 1.074588
v 0.020087 0.029236 1.074588
v -0.815352 0.029236 0.637405
v -0.471042 0.842637 0.559161
v -0.471042 0.842637 -0.458890
v -0.867286 0.025288 0.559161
v -0.867286 0.025288 -0.458890
v -0.446362 0.790366 0.637405
v -0.396261 0.817810 0.559161
v -0.396261 0.817810 0.559161
v -0.396261 0.817810 -0.458890
v -0.396261 0.817810 -0.458890
v -0.446500 -0.813121 0.637498
v 0.691497 -0.863844 0.559161
v -0.814590 -0.072303 0.637498
v 0.018812 -0.072303 1.073616
v 0.616261 -0.910473 0.559161
v 0.691497 -0.863844 -0.458890
v 0.019011 -0.072215 -0.993676
v 0.691042 0.842637 -0.458890
v 0.691042 0.842637 0.559161
v 1.087286 0.025288 -0.458890
v 1.087286 0.025288 0.559161
v 1.086831 -0.068193 0.559161
v 1.086831 -0.068193 -0.458890
v -0.815195 -0.072215 -0.538068
v -0.446750 -0.813748 -0.538068
v 0.201188 -0.072303 1.073616
v 1.034590 -0.072303 0.637498
v 0.666500 -0.813121 0.637498
v 0.200989 -0.072215 -0.993676
v 1.035195 -0.072215 -0.538068
v 0.666750 -0.813748 -0.538068
v -0.471497 -0.863844 -0.458890
v -0.866831 -0.068193 0.559161
v -0.866831 -0.068193 -0.458890
v -0.471497 -0.863844 0.559161
v 0.110000 -0.115585 -0.999348
v -0.361409 -0.866110 -0.538215
v 0.581409 -0.866110 -0.538215
v 0.110000 -0.115825 1.079036
v 0.580939 -0.865603 0.637644
v -0.360939 -0.865603 0.637644
v 0.581696 0.844339 0.637163
v -0.361696 0.844339 0.637163
v 0.110000 0.074649 1.079263
vn -0.0000 1.0000 -0.0000
vn -0.0000 -0.5142 0.8577
vn -0.0000 -1.0000 -0.0000
vn 0.8998 -0.4362 -0.0000
vn 0.4524 -0.2193 -0.8644
vn -0.8998 -0.4362 -0.0000
vn -0.8955 0.4450 -0.0000
vn -0.4669 -0.2263 0.8549
vn -0.4663 0.2317 0.8538
vn 0.8955 0.4450 -0.0000
vn 0.4518 0.2245 -0.8634
vn 0.4669 -0.2263 0.8549
vn -0.0000 0.5235 0.8520
vn 0.4663 0.2317 0.8538
vn -0.4524 -0.2193 -0.8644
vn -0.0000 -0.4981 -0.8671
vn -0.0000 0.5073 -0.8618
vn -0.4518 0.2245 -0.8634
vt 0.000000 0.000000
vt 0.863343 0.511600
vt 0.875000 0.500000
vt 0.125000 0.750000
vt 0.136657 0.738400
vt 0.136657 0.511600
vt 0.125000 0.500000
vt 0.625000 0.500000
vt 0.625000 0.750000
vt 0.875000 0.750000
vt 0.625000 0.250000
vt 0.618741 0.269297
vt 0.618741 0.480703
vt 0.863343 0.738400
vt 0.636657 0.738400
vt 0.636657 0.511600
vt 0.625000 0.000000
vt 0.618433 0.011600
vt 0.618433 0.238400
vt 0.503871 0.238400
vt 0.497304 0.250000
vt 0.503872 0.011600
vt 0.497304 0.000000
vt 0.625000 1.000000
vt 0.611107 0.993747
vt 0.504425 0.993747
vt 0.497304 1.000000
vt 0.504425 0.889318
vt 0.497304 0.875000
vt 0.375000 0.500000
vt 0.363343 0.511600
vt 0.363343 0.738400
vt 0.375000 0.750000
vt 0.618433 0.511600
vt 0.618433 0.738400
vt 0.503871 0.738400
vt 0.497304 0.750000
vt 0.503871 0.511600
vt 0.497304 0.500000
vt 0.490889 0.511600
vt 0.490889 0.738400
vt 0.381416 0.738400
vt 0.381416 0.511600
vt 0.611197 0.493817
vt 0.504413 0.493817
vt 0.504413 0.389287
vt 0.497304 0.375000
vt 0.490335 0.389520
vt 0.490335 0.493795
vt 0.388308 0.493795
vt 0.490889 0.011600
vt 0.490889 0.238400
vt 0.381416 0.238400
vt 0.375000 0.250000
vt 0.381416 0.011600
vt 0.375000 0.000000
vt 0.490323 0.889550
vt 0.490323 0.993725
vt 0.388395 0.993725
vt 0.375000 1.000000
vt 0.504413 0.360713
vt 0.504413 0.256183
vt 0.611197 0.256183
vt 0.510758 0.375000
vt 0.381104 0.480540
vt 0.381104 0.269460
vt 0.484368 0.375000
vt 0.388308 0.256205
vt 0.490335 0.256205
vt 0.490335 0.360480
vt 0.504425 0.860682
vt 0.504425 0.756253
vt 0.611107 0.756253
vt 0.618672 0.769396
vt 0.618672 0.980604
vt 0.510790 0.875000
vt 0.381174 0.980435
vt 0.381174 0.769565
vt 0.484335 0.875000
vt 0.388395 0.756275
vt 0.490323 0.756275
vt 0.490323 0.860450
s 0
usemtl Material
f 41/1/1 114/1/1 115/1/1 40/1/1
f 54/1/1 128/1/1 126/1/1 53/1/1
f 64/2/1 139/2/1 79/3/1 4/3/1
f 52/1/1 127/1/1 128/1/1 54/1/1
f 14/1/1 88/1/1 86/1/1 13/1/1
f 53/1/1 126/1/1 127/1/1 52/1/1
f 12/1/1 87/1/1 88/1/1 14/1/1
f 13/1/1 86/1/1 87/1/1 12/1/1
f 39/1/1 113/1/1 112/1/1 38/1/1
f 7/4/1 17/5/1 18/6/1 5/7/1
f 65/1/1 138/1/1 139/1/1 64/1/1
f 26/1/1 99/1/1 100/1/1 25/1/1
f 37/1/1 111/1/1 113/1/1 39/1/1
f 25/1/1 100/1/1 98/1/1 24/1/1
f 38/1/1 112/1/1 111/1/1 37/1/1
f 51/1/1 125/1/1 123/1/1 50/1/1
f 23/1/1 97/1/1 99/1/1 26/1/1
f 49/1/1 124/1/1 125/1/1 51/1/1
f 24/1/1 98/1/1 97/1/1 23/1/1
f 50/1/1 123/1/1 124/1/1 49/1/1
f 1/8/1 78/8/1 77/9/1 2/9/1
f 63/1/1 137/1/1 135/1/1 62/1/1
f 11/1/1 84/1/1 85/1/1 10/1/1
f 2/9/1 77/9/1 73/10/1 6/10/1
f 61/1/1 136/1/1 137/1/1 63/1/1
f 10/1/1 85/1/1 83/1/1 9/1/1
f 62/1/1 135/1/1 136/1/1 61/1/1
f 8/1/1 82/1/1 84/1/1 11/1/1
f 36/1/1 109/1/1 110/1/1 35/1/1
f 9/1/1 83/1/1 82/1/1 8/1/1
f 35/1/1 110/1/1 108/1/1 34/1/1
f 48/1/1 122/1/1 121/1/1 47/1/1
f 22/1/1 95/1/1 96/1/1 21/1/1
f 33/1/1 107/1/1 109/1/1 36/1/1
f 46/1/1 120/1/1 122/1/1 48/1/1
f 4/11/2 43/12/2 44/13/2 1/8/2
f 21/1/1 96/1/1 94/1/1 20/1/1
f 34/1/1 108/1/1 107/1/1 33/1/1
f 47/1/1 121/1/1 120/1/1 46/1/1
f 60/1/1 134/1/1 133/1/1 59/1/1
f 19/1/1 93/1/1 95/1/1 22/1/1
f 5/7/1 68/7/1 69/4/1 7/4/1
f 58/1/1 132/1/1 134/1/1 60/1/1
f 20/1/1 94/1/1 93/1/1 19/1/1
f 44/13/1 119/13/1 78/8/1 1/8/1
f 59/1/1 133/1/1 132/1/1 58/1/1
f 18/6/1 91/6/1 68/7/1 5/7/1
f 4/11/1 79/11/1 117/12/1 43/12/1
f 7/4/1 69/4/1 92/5/1 17/5/1
f 32/1/1 106/1/1 105/1/1 31/1/1
f 45/1/1 118/1/1 119/1/1 44/1/1
f 30/1/1 104/1/1 106/1/1 32/1/1
f 43/1/1 117/1/1 118/1/1 45/1/1
f 31/1/1 105/1/1 104/1/1 30/1/1
f 57/1/1 131/1/1 130/1/1 56/1/1
f 55/1/1 129/1/1 131/1/1 57/1/1
f 17/1/1 92/1/1 89/1/1 16/1/1
f 6/10/3 65/14/3 66/15/3 2/9/3
f 2/9/3 66/15/3 67/16/3 1/8/3
f 1/8/3 67/16/3 64/2/3 4/3/3
f 73/17/4 82/18/4 83/19/4 79/11/4
f 79/11/4 83/19/4 85/20/4 76/21/4
f 76/21/4 85/20/4 84/22/4 72/23/4
f 72/23/4 84/22/4 82/18/4 73/17/4
f 73/24/5 87/25/5 86/26/5 72/27/5
f 72/27/5 86/26/5 88/28/5 81/29/5
f 81/29/5 88/28/5 87/25/5 73/24/5
f 70/30/1 90/31/1 89/32/1 75/33/1
f 75/33/1 89/32/1 92/5/1 69/4/1
f 68/7/1 91/6/1 90/31/1 70/30/1
f 78/8/6 93/34/6 94/35/6 77/9/6
f 77/9/6 94/35/6 96/36/6 74/37/6
f 74/37/6 96/36/6 95/38/6 71/39/6
f 71/39/6 95/38/6 93/34/6 78/8/6
f 71/39/7 97/40/7 98/41/7 74/37/7
f 74/37/7 98/41/7 100/42/7 75/33/7
f 75/33/7 100/42/7 99/43/7 70/30/7
f 70/30/7 99/43/7 97/40/7 71/39/7
f 78/8/8 101/44/8 102/45/8 71/39/8
f 71/39/8 102/45/8 103/46/8 80/47/8
f 80/47/8 103/46/8 101/44/8 78/8/8
f 80/47/9 104/48/9 105/49/9 71/39/9
f 71/39/9 105/49/9 106/50/9 70/30/9
f 70/30/9 106/50/9 104/48/9 80/47/9
f 72/23/10 107/51/10 108/52/10 76/21/10
f 76/21/10 108/52/10 110/53/10 68/54/10
f 68/54/10 110/53/10 109/55/10 69/56/10
f 69/56/10 109/55/10 107/51/10 72/23/10
f 81/29/11 111/57/11 112/58/11 72/27/11
f 72/27/11 112/58/11 113/59/11 69/60/11
f 69/60/11 113/59/11 111/57/11 81/29/11
f 80/47/12 115/61/12 114/62/12 76/21/12
f 76/21/12 114/62/12 116/63/12 79/11/12
f 79/11/12 116/63/12 115/61/12 80/47/12
f 78/8/2 119/13/2 118/64/2 80/47/2
f 80/47/2 118/64/2 117/12/2 79/11/2
f 70/30/13 120/65/13 121/66/13 68/54/13
f 68/54/13 121/66/13 122/67/13 80/47/13
f 80/47/13 122/67/13 120/65/13 70/30/13
f 68/54/14 124/68/14 123/69/14 76/21/14
f 76/21/14 123/69/14 125/70/14 80/47/14
f 80/47/14 125/70/14 124/68/14 68/54/14
f 81/29/15 127/71/15 126/72/15 74/37/15
f 74/37/15 126/72/15 128/73/15 77/9/15
f 77/9/15 128/73/15 127/71/15 81/29/15
f 77/9/16 129/74/16 130/75/16 73/24/16
f 73/24/16 130/75/16 131/76/16 81/29/16
f 81/29/16 131/76/16 129/74/16 77/9/16
f 69/60/17 132/77/17 133/78/17 75/33/17
f 75/33/17 133/78/17 134/79/17 81/29/17
f 81/29/17 134/79/17 132/77/17 69/60/17
f 75/33/18 136/80/18 135/81/18 74/37/18
f 74/37/18 135/81/18 137/82/18 81/29/18
f 81/29/18 137/82/18 136/80/18 75/33/18
f 79/3/3 139/2/3 138/14/3 73/10/3
f 28/1/1 102/1/1 101/1/1 27/1/1
f 6/10/1 73/10/1 138/14/1 65/14/1
f 40/1/1 115/1/1 116/1/1 42/1/1
f 27/1/1 101/1/1 103/1/1 29/1/1
f 42/1/1 116/1/1 114/1/1 41/1/1
f 29/1/1 103/1/1 102/1/1 28/1/1
f 16/1/1 89/1/1 90/1/1 15/1/1
f 15/1/1 90/1/1 91/1/1 18/1/1
f 56/1/1 130/1/1 129/1/1 55/1/1
f 157/1/1 158/1/1 159/1/1 156/1/1
f 55/1/1 57/1/1 193/1/1 191/1/1
f 57/1/1 56/1/1 192/1/1 193/1/1
f 31/1/1 30/1/1 178/1/1 179/1/1
f 30/1/1 32/1/1 180/1/1 178/1/1
f 32/1/1 31/1/1 179/1/1 180/1/1
f 59/1/1 58/1/1 190/1/1 189/1/1
f 20/1/1 19/1/1 167/1/1 168/1/1
f 58/1/1 60/1/1 188/1/1 190/1/1
f 19/1/1 22/1/1 169/1/1 167/1/1
f 60/1/1 59/1/1 189/1/1 188/1/1
f 47/1/1 46/1/1 187/1/1 186/1/1
f 34/1/1 33/1/1 182/1/1 183/1/1
f 21/1/1 20/1/1 168/1/1 170/1/1
f 46/1/1 48/1/1 185/1/1 187/1/1
f 33/1/1 36/1/1 184/1/1 182/1/1
f 22/1/1 21/1/1 170/1/1 169/1/1
f 48/1/1 47/1/1 186/1/1 185/1/1
f 35/1/1 34/1/1 183/1/1 181/1/1
f 9/1/1 8/1/1 151/1/1 152/1/1
f 36/1/1 35/1/1 181/1/1 184/1/1
f 8/1/1 11/1/1 153/1/1 151/1/1
f 62/1/1 61/1/1 177/1/1 176/1/1
f 10/1/1 9/1/1 152/1/1 154/1/1
f 61/1/1 63/1/1 175/1/1 177/1/1
f 11/1/1 10/1/1 154/1/1 153/1/1
f 63/1/1 62/1/1 176/1/1 175/1/1
f 50/1/1 49/1/1 174/1/1 173/1/1
f 24/1/1 23/1/1 172/1/1 171/1/1
f 49/1/1 51/1/1 166/1/1 174/1/1
f 23/1/1 26/1/1 165/1/1 172/1/1
f 51/1/1 50/1/1 173/1/1 166/1/1
f 38/1/1 37/1/1 163/1/1 162/1/1
f 25/1/1 24/1/1 171/1/1 161/1/1
f 37/1/1 39/1/1 160/1/1 163/1/1
f 26/1/1 25/1/1 161/1/1 165/1/1
f 39/1/1 38/1/1 162/1/1 160/1/1
f 13/1/1 12/1/1 155/1/1 150/1/1
f 12/1/1 14/1/1 149/1/1 155/1/1
f 53/1/1 52/1/1 148/1/1 147/1/1
f 14/1/1 13/1/1 150/1/1 149/1/1
f 52/1/1 54/1/1 146/1/1 148/1/1
f 54/1/1 53/1/1 147/1/1 146/1/1
f 41/1/1 40/1/1 145/1/1 144/1/1
f 28/1/1 27/1/1 143/1/1 142/1/1
f 40/1/1 42/1/1 141/1/1 145/1/1
f 27/1/1 29/1/1 140/1/1 143/1/1
f 42/1/1 41/1/1 144/1/1 141/1/1
f 29/1/1 28/1/1 142/1/1 140/1/1
f 16/1/1 15/1/1 3/1/1 164/1/1
f 56/1/1 55/1/1 191/1/1 192/1/1
